<svg xmlns="http://www.w3.org/2000/svg" width="180" height="180" viewBox="0 0 180 180">
  <title>DMD Program Logo</title>
  <g>
    <g>
      <g>
        <path d="M101.7959,82.70508V74.42529q1.70435-.1084,3.21631-.1084a3.46914,3.46914,0,0,1,2.75391.91211,5.306,5.306,0,0,1,.77393,3.33594,5.305,5.305,0,0,1-.77393,3.33594,3.46742,3.46742,0,0,1-2.75391.91211Q103.49976,82.813,101.7959,82.70508Zm1.82422-6.94824v5.604q.20361,0,.666.00635.46143.00586.72607.00586a1.337,1.337,0,0,0,1.26563-.58789,7.3908,7.3908,0,0,0,0-4.44629,1.33258,1.33258,0,0,0-1.26562-.59375Z" style="fill: #231f20"/>
        <path d="M110.03711,74.17285h.792a.45625.45625,0,0,1,.51611.51611v.64795a.45605.45605,0,0,1-.51611.51611h-.792a.4559.4559,0,0,1-.51562-.51611V74.689A.4561.4561,0,0,1,110.03711,74.17285Zm1.28418,8.53223h-1.76416v-5.916h1.76416Z" style="fill: #231f20"/>
        <path d="M118.416,77.56885l-.74414.09619a2.17338,2.17338,0,0,1,.144.85205,1.66058,1.66058,0,0,1-.61768,1.46387,3.96865,3.96865,0,0,1-2.166.43213,8.60938,8.60938,0,0,1-1.02-.06006.42718.42718,0,0,0-.0542.43213.43914.43914,0,0,0,.40186.27588l2.14795.252a2.11938,2.11938,0,0,1,1.314.52832,1.721,1.721,0,0,1,.40234,1.23584,1.61348,1.61348,0,0,1-.67822,1.52393,5.23088,5.23088,0,0,1-2.42969.396,5.47074,5.47074,0,0,1-2.47217-.37793,1.46626,1.46626,0,0,1-.64795-1.38623,1.2586,1.2586,0,0,1,.21-.75,1.80885,1.80885,0,0,1,.72607-.53369A1.19172,1.19172,0,0,1,113.124,80.125a1.586,1.586,0,0,1-.876-1.5957,1.66682,1.66682,0,0,1,.624-1.47607,4.00021,4.00021,0,0,1,2.17188-.43213,5.97584,5.97584,0,0,1,1.54785.168H118.5Zm-2.856,4.9082-1.48828-.15576a.88394.88394,0,0,0-.38379.68359q0,.43213.26416.55225a5.42616,5.42616,0,0,0,2.29785-.00586.51208.51208,0,0,0,.28223-.522q0-.31274-.18018-.396A3.18661,3.18661,0,0,0,115.56006,82.47705Zm-.52783-3.19189a1.69271,1.69271,0,0,0,.89355-.168.6746.6746,0,0,0,.24609-.6001.66482.66482,0,0,0-.23975-.6001,1.8,1.8,0,0,0-.8999-.15576,1.83661,1.83661,0,0,0-.90625.15576.65677.65677,0,0,0-.24609.6001.6746.6746,0,0,0,.24609.6001A1.72512,1.72512,0,0,0,115.03223,79.28516Z" style="fill: #231f20"/>
        <path d="M119.62891,74.17285h.792a.45625.45625,0,0,1,.51611.51611v.64795a.45605.45605,0,0,1-.51611.51611h-.792a.4559.4559,0,0,1-.51562-.51611V74.689A.4561.4561,0,0,1,119.62891,74.17285Zm1.28418,8.53223h-1.76416v-5.916h1.76416Z" style="fill: #231f20"/>
        <path d="M124.3999,77.97705v2.7959a.61731.61731,0,0,0,.144.46826.74643.74643,0,0,0,.50391.13184h.75586l.19189,1.23584a5.06516,5.06516,0,0,1-1.668.24023,1.673,1.673,0,0,1-1.248-.4502,1.708,1.708,0,0,1-.44385-1.25391v-3.168H121.5918V76.84912l1.04395-.06006V75.1333h1.76416v1.65576h1.644v1.188Z" style="fill: #231f20"/>
        <path d="M126.91553,78.10889l-.168-1.19971a17.36621,17.36621,0,0,1,3.084-.28809,2.66326,2.66326,0,0,1,1.76367.48584,2.13446,2.13446,0,0,1,.564,1.686v3.91211h-1.40381l-.18018-.8999a2.76005,2.76005,0,0,1-2.18408,1.04395,2.09887,2.09887,0,0,1-1.3916-.4502,1.5412,1.5412,0,0,1-.54-1.25391v-.6001a1.35192,1.35192,0,0,1,.48-1.104,2.03561,2.03561,0,0,1,1.332-.396h2.11182v-.26367a.77963.77963,0,0,0-.21-.6123,1.31344,1.31344,0,0,0-.76221-.15576Q128.42749,78.01318,126.91553,78.10889Zm1.2959,2.56836v.228q0,.61157.6958.61182a2.44834,2.44834,0,0,0,1.47607-.57617v-.82764h-1.59619A.5101.5101,0,0,0,128.21143,80.67725Z" style="fill: #231f20"/>
        <path d="M134.98486,74.30518v6.46777q0,.60059.67236.6001h.48l.20361,1.23584a3.17039,3.17039,0,0,1-1.41553.24023,1.75424,1.75424,0,0,1-1.248-.42627,1.56735,1.56735,0,0,1-.45605-1.20557V74.30518Z" style="fill: #231f20"/>
      </g>
      <g>
        <path d="M108.44385,85.3374H110.208a.61785.61785,0,0,1,.68408.68359l.32373,7.59619h-1.72754l-.27637-6.85205h-.2041l-1.24756,5.124a.6777.6777,0,0,1-.74414.58789h-1.2002a.67694.67694,0,0,1-.74365-.58789l-1.26025-5.124h-.2041l-.23975,6.85205h-1.728l.2998-7.59619a.62472.62472,0,0,1,.68408-.68359h1.76416a.67355.67355,0,0,1,.71973.58789l1.0083,4.12793q.09595.39624.21582,1.16406h.15625q.01172-.06006.08984-.49219.07764-.43213.126-.67187l.99609-4.12793A.69667.69667,0,0,1,108.44385,85.3374Z" style="fill: #231f20"/>
        <path d="M117.90234,87.70117v5.916H116.498l-.13184-.81592a3.93518,3.93518,0,0,1-2.44824.97168,1.46366,1.46366,0,0,1-1.668-1.64355V87.70117h1.77637v3.88818a.75566.75566,0,0,0,.13184.54.66691.66691,0,0,0,.50391.15576,3.62594,3.62594,0,0,0,1.47607-.49219v-4.0918Z" style="fill: #231f20"/>
        <path d="M120.77734,85.21729v6.46777q0,.60059.67236.6001h.48l.20361,1.23584a3.17039,3.17039,0,0,1-1.41553.24023,1.75423,1.75423,0,0,1-1.248-.42627,1.56735,1.56735,0,0,1-.45605-1.20557V85.21729Z" style="fill: #231f20"/>
        <path d="M124.66064,88.88916v2.7959a.61731.61731,0,0,0,.144.46826.74643.74643,0,0,0,.50391.13184h.75586l.19189,1.23584a5.06516,5.06516,0,0,1-1.668.24023,1.673,1.673,0,0,1-1.248-.4502,1.708,1.708,0,0,1-.44385-1.25391v-3.168h-1.04395V87.76123l1.04395-.06006V86.04541h1.76416v1.65576h1.644v1.188Z" style="fill: #231f20"/>
        <path d="M127.48145,85.085h.792a.45625.45625,0,0,1,.51611.51611V86.249a.45605.45605,0,0,1-.51611.51611h-.792a.4559.4559,0,0,1-.51562-.51611v-.64795A.4561.4561,0,0,1,127.48145,85.085Zm1.28418,8.53223h-1.76416v-5.916h1.76416Z" style="fill: #231f20"/>
        <path d="M131.30957,87.70117l.12012.86426a3.37362,3.37362,0,0,1,2.25586-1.03223,1.42373,1.42373,0,0,1,1.52393.96,3.18155,3.18155,0,0,1,2.16016-.96,1.4726,1.4726,0,0,1,1.644,1.644v4.43994h-1.76416V89.729a.84877.84877,0,0,0-.13184-.54.62656.62656,0,0,0-.49219-.15576,1.44656,1.44656,0,0,0-.55176.10791,5.83131,5.83131,0,0,0-.76807.41992v4.05615h-1.7041V89.729a.77217.77217,0,0,0-.1499-.54.65281.65281,0,0,0-.48584-.15576,2.8162,2.8162,0,0,0-1.30811.51611v4.06787h-1.76416v-5.916Z" style="fill: #231f20"/>
        <path d="M143.89014,91.25342h-2.13623a1.22592,1.22592,0,0,0,.39014.86963,1.76649,1.76649,0,0,0,1.01416.22217,21.54954,21.54954,0,0,0,2.208-.13184l.168,1.104a6.08289,6.08289,0,0,1-2.58008.44385,3.24677,3.24677,0,0,1-2.376-.72021,3.30751,3.30751,0,0,1-.708-2.376,3.41771,3.41771,0,0,1,.68994-2.436,3.19186,3.19186,0,0,1,2.32227-.6958,3.527,3.527,0,0,1,2.13623.50977,1.872,1.872,0,0,1,.67188,1.5542,1.66161,1.66161,0,0,1-.42578,1.24219A1.92335,1.92335,0,0,1,143.89014,91.25342Zm-2.17187-1.06836h1.67969a.51259.51259,0,0,0,.438-.15576.76549.76549,0,0,0,.11426-.45605.68665.68665,0,0,0-.21582-.582,1.393,1.393,0,0,0-.79248-.16211,1.26218,1.26218,0,0,0-.93555.27A1.77731,1.77731,0,0,0,141.71826,90.18506Z" style="fill: #231f20"/>
        <path d="M152.21973,85.21729v8.3999h-1.40332l-.14453-.86377a2.80845,2.80845,0,0,1-2.25586,1.00781,1.74443,1.74443,0,0,1-1.60156-.79785,4.5,4.5,0,0,1-.498-2.3584,3.89086,3.89086,0,0,1,.55176-2.3877,2.07351,2.07351,0,0,1,1.71582-.68408,3.35118,3.35118,0,0,1,1.91992.52783q-.06006-.65991-.05957-1.23584V85.21729Zm-1.77539,6.6001V89.08105a4.96387,4.96387,0,0,0-1.26074-.228.9127.9127,0,0,0-.82129.33594,2.8921,2.8921,0,0,0-.22266,1.4043,2.85143,2.85143,0,0,0,.2168,1.36182.83489.83489,0,0,0,.76758.34229,1.76726,1.76726,0,0,0,.63574-.10205A3.90841,3.90841,0,0,0,150.44434,91.81738Z" style="fill: #231f20"/>
        <path d="M153.835,85.085h.792a.4561.4561,0,0,1,.51563.51611V86.249a.4559.4559,0,0,1-.51562.51611h-.792a.4559.4559,0,0,1-.51562-.51611v-.64795A.4561.4561,0,0,1,153.835,85.085Zm1.28418,8.53223h-1.76465v-5.916h1.76465Z" style="fill: #231f20"/>
        <path d="M156.42773,89.021l-.168-1.19971a17.36621,17.36621,0,0,1,3.084-.28809,2.66326,2.66326,0,0,1,1.76367.48584,2.13452,2.13452,0,0,1,.56445,1.686v3.91211h-1.4043l-.17969-.8999a2.761,2.761,0,0,1-2.18457,1.04395,2.10066,2.10066,0,0,1-1.3916-.4502,1.5412,1.5412,0,0,1-.54-1.25391V91.457a1.35227,1.35227,0,0,1,.48047-1.104,2.0347,2.0347,0,0,1,1.332-.396h2.11133v-.26367a.77963.77963,0,0,0-.21-.6123,1.31157,1.31157,0,0,0-.76172-.15576Q157.93945,88.92529,156.42773,89.021Zm1.2959,2.56836v.228q0,.61157.69629.61182a2.44818,2.44818,0,0,0,1.47559-.57617v-.82764h-1.5957A.51046.51046,0,0,0,157.72363,91.58936Z" style="fill: #231f20"/>
      </g>
      <g>
        <path d="M101.7959,104.58984V96.30957q1.70435-.1084,3.21631-.1084a3.47086,3.47086,0,0,1,2.75391.91211,5.3079,5.3079,0,0,1,.77393,3.33594,5.30407,5.30407,0,0,1-.77393,3.33594,3.46742,3.46742,0,0,1-2.75391.91211Q103.49976,104.69727,101.7959,104.58984Zm1.82422-6.94824v5.60352c.13574,0,.35791.00293.666.00684q.46143.00586.72607.00586a1.338,1.338,0,0,0,1.26563-.58789,7.3908,7.3908,0,0,0,0-4.44629,1.33165,1.33165,0,0,0-1.26562-.59375Z" style="fill: #231f20"/>
        <path d="M113.31592,102.22559h-2.13623a1.22824,1.22824,0,0,0,.39014.87012,1.767,1.767,0,0,0,1.01416.22168,21.54955,21.54955,0,0,0,2.208-.13184l.168,1.10449a6.08373,6.08373,0,0,1-2.58008.44336,3.24893,3.24893,0,0,1-2.376-.71973,3.3091,3.3091,0,0,1-.708-2.376,3.41909,3.41909,0,0,1,.68994-2.43652,3.1919,3.1919,0,0,1,2.32227-.69531,3.52434,3.52434,0,0,1,2.13574.50977,1.86965,1.86965,0,0,1,.67188,1.55371,1.65892,1.65892,0,0,1-.42578,1.24219A1.919,1.919,0,0,1,113.31592,102.22559Zm-2.17187-1.06836h1.67969a.51393.51393,0,0,0,.438-.15527.76651.76651,0,0,0,.11426-.45605.68541.68541,0,0,0-.21582-.582,1.38889,1.38889,0,0,0-.79248-.16211,1.26442,1.26442,0,0,0-.93555.26953A1.77845,1.77845,0,0,0,111.144,101.15723Z" style="fill: #231f20"/>
        <path d="M118.645,102.39355l-1.47607-.39551a2.12714,2.12714,0,0,1-1.12793-.6543,1.86819,1.86819,0,0,1-.312-1.14648,1.45975,1.45975,0,0,1,.57031-1.30762,3.65333,3.65333,0,0,1,1.94971-.38379,17.26355,17.26355,0,0,1,2.73633.22754l-.12012,1.14063q-1.51245-.0249-2.28027-.02441-.41968,0-.582.00586a1.83751,1.83751,0,0,0-.32373.042q-.16187.03662-.19824.11426a.58324.58324,0,0,0-.03564.2334.89555.89555,0,0,0,.00586.1084.23.23,0,0,0,.02979.08984.66023.66023,0,0,0,.042.06641.25005.25005,0,0,0,.06641.05371.45659.45659,0,0,0,.07764.042c.02.00781.05615.02246.1084.042.05176.02051.0918.03418.11963.042s.08008.02246.15625.042c.07568.02051.13379.03418.17383.042l1.51221.4082a2.35813,2.35813,0,0,1,1.12793.60645,1.6432,1.6432,0,0,1,.33594,1.12109,1.552,1.552,0,0,1-.61182,1.43457,4.241,4.241,0,0,1-2.1001.37793,16.04972,16.04972,0,0,1-2.65234-.2041l.1084-1.15234q.43213.0249,2.05176.02441a5.7297,5.7297,0,0,0,1.20605-.07812.34755.34755,0,0,0,.28223-.36621.88359.88359,0,0,0-.00635-.10742.23.23,0,0,0-.02979-.08984.31621.31621,0,0,0-.04785-.06641.36237.36237,0,0,0-.07812-.05371c-.03613-.02051-.06445-.03613-.084-.04785a.69984.69984,0,0,0-.11426-.04883c-.05566-.01953-.1001-.0332-.13184-.042-.03223-.00781-.08789-.02148-.168-.042A1.33351,1.33351,0,0,1,118.645,102.39355Z" style="fill: #231f20"/>
        <path d="M122.47412,96.05762h.792a.4559.4559,0,0,1,.51611.51563v.64844a.4559.4559,0,0,1-.51611.51563h-.792a.45575.45575,0,0,1-.51562-.51562v-.64844A.45575.45575,0,0,1,122.47412,96.05762Zm1.28418,8.53223h-1.76416v-5.916h1.76416Z" style="fill: #231f20"/>
        <path d="M130.85254,99.45313l-.74414.09668a2.16912,2.16912,0,0,1,.144.85156,1.66,1.66,0,0,1-.61768,1.46387,3.96792,3.96792,0,0,1-2.166.43262,8.60925,8.60925,0,0,1-1.02-.06055.42807.42807,0,0,0-.0542.43262.438.438,0,0,0,.40186.27539l2.14795.252a2.11938,2.11938,0,0,1,1.314.52832,1.723,1.723,0,0,1,.40234,1.23633,1.6121,1.6121,0,0,1-.67822,1.52344,5.22307,5.22307,0,0,1-2.42969.39648,5.47074,5.47074,0,0,1-2.47217-.37793,1.4666,1.4666,0,0,1-.64795-1.38672,1.25963,1.25963,0,0,1,.21-.75,1.81292,1.81292,0,0,1,.72607-.5332,1.19161,1.19161,0,0,1,.19189-1.82422,1.58638,1.58638,0,0,1-.876-1.5957,1.66777,1.66777,0,0,1,.624-1.47656,4.00095,4.00095,0,0,1,2.17188-.43164,5.95457,5.95457,0,0,1,1.54785.168h1.9082Zm-2.856,4.9082-1.48828-.15527a.88394.88394,0,0,0-.38379.68359q0,.43213.26416.55176a5.42616,5.42616,0,0,0,2.29785-.00586.51137.51137,0,0,0,.28223-.52148c0-.209-.06006-.34082-.18018-.39648A3.21036,3.21036,0,0,0,127.99658,104.36133Zm-.52783-3.19141a1.69758,1.69758,0,0,0,.89355-.168.67613.67613,0,0,0,.24609-.60059.6633.6633,0,0,0-.23975-.59961,1.79337,1.79337,0,0,0-.8999-.15625,1.82977,1.82977,0,0,0-.90625.15625.65528.65528,0,0,0-.24609.59961.67613.67613,0,0,0,.24609.60059A1.73005,1.73005,0,0,0,127.46875,101.16992Z" style="fill: #231f20"/>
        <path d="M133.00146,98.67383l.13232.876a4.03529,4.03529,0,0,1,2.53174-1.04395,1.6784,1.6784,0,0,1,1.23.41992,1.64291,1.64291,0,0,1,.42627,1.22363v4.44043h-1.76416v-3.88867a.87565.87565,0,0,0-.126-.5459.565.565,0,0,0-.4502-.14941,4.14205,4.14205,0,0,0-1.644.54v4.04395h-1.77588v-5.916Z" style="fill: #231f20"/>
      </g>
    </g>
    <polygon points="30.556 57.264 36.856 68.176 24.256 68.176 30.556 57.264" style="fill: none;stroke: #000;stroke-linecap: round;stroke-linejoin: round"/>
    <polygon points="43.156 57.264 49.456 68.176 36.856 68.176 43.156 57.264" style="fill: none;stroke: #000;stroke-linecap: round;stroke-linejoin: round"/>
    <polygon points="36.856 68.176 30.556 57.264 43.156 57.264 36.856 68.176" style="fill: none;stroke: #000;stroke-linecap: round;stroke-linejoin: round"/>
    <polygon points="55.756 57.264 62.056 68.176 49.456 68.176 55.756 57.264" style="fill: none;stroke: #000;stroke-linecap: round;stroke-linejoin: round"/>
    <polygon points="49.456 68.176 43.156 57.264 55.756 57.264 49.456 68.176" style="fill: none;stroke: #000;stroke-linecap: round;stroke-linejoin: round"/>
    <polygon points="62.056 68.176 55.756 57.264 68.356 57.264 62.056 68.176" style="fill: none;stroke: #000;stroke-linecap: round;stroke-linejoin: round"/>
    <polygon points="68.356 57.264 74.656 68.176 62.056 68.176 68.356 57.264" style="fill: none;stroke: #000;stroke-linecap: round;stroke-linejoin: round"/>
    <polygon points="74.656 68.176 68.356 57.264 80.956 57.264 74.656 68.176" style="fill: none;stroke: #000;stroke-linecap: round;stroke-linejoin: round"/>
    <polygon points="24.256 68.176 30.556 79.088 17.956 79.088 24.256 68.176" style="fill: none;stroke: #000;stroke-linecap: round;stroke-linejoin: round"/>
    <polygon points="36.856 68.176 43.156 79.088 30.556 79.088 36.856 68.176" style="fill: none;stroke: #000;stroke-linecap: round;stroke-linejoin: round"/>
    <polygon points="30.556 79.088 24.256 68.176 36.856 68.176 30.556 79.088" style="fill: none;stroke: #000;stroke-linecap: round;stroke-linejoin: round"/>
    <polygon points="49.456 68.176 55.756 79.088 43.156 79.088 49.456 68.176" style="fill: none;stroke: #000;stroke-linecap: round;stroke-linejoin: round"/>
    <polygon points="43.156 79.088 36.856 68.176 49.456 68.176 43.156 79.088" style="fill: none;stroke: #000;stroke-linecap: round;stroke-linejoin: round"/>
    <polygon points="55.756 79.088 49.456 68.176 62.056 68.176 55.756 79.088" style="fill: none;stroke: #000;stroke-linecap: round;stroke-linejoin: round"/>
    <polygon points="62.056 68.176 68.356 79.088 55.756 79.088 62.056 68.176" style="fill: none;stroke: #000;stroke-linecap: round;stroke-linejoin: round"/>
    <polygon points="68.356 79.088 62.056 68.176 74.656 68.176 68.356 79.088" style="fill: none;stroke: #000;stroke-linecap: round;stroke-linejoin: round"/>
    <polygon points="30.556 79.088 36.856 90 24.256 90 30.556 79.088" style="fill: none;stroke: #000;stroke-linecap: round;stroke-linejoin: round"/>
    <polygon points="43.156 79.088 49.456 90 36.856 90 43.156 79.088" style="fill: none;stroke: #000;stroke-linecap: round;stroke-linejoin: round"/>
    <polygon points="36.856 90 30.556 79.088 43.156 79.088 36.856 90" style="fill: none;stroke: #000;stroke-linecap: round;stroke-linejoin: round"/>
    <polygon points="55.756 79.088 62.056 90 49.456 90 55.756 79.088" style="fill: none;stroke: #000;stroke-linecap: round;stroke-linejoin: round"/>
    <polygon points="49.456 90 43.156 79.088 55.756 79.088 49.456 90" style="fill: none;stroke: #000;stroke-linecap: round;stroke-linejoin: round"/>
    <polygon points="62.056 90 55.756 79.088 68.356 79.088 62.056 90" style="fill: none;stroke: #000;stroke-linecap: round;stroke-linejoin: round"/>
    <polygon points="68.356 79.088 74.656 90 62.056 90 68.356 79.088" style="fill: none;stroke: #000;stroke-linecap: round;stroke-linejoin: round"/>
    <polygon points="74.656 90 68.356 79.088 80.956 79.088 74.656 90" style="fill: none;stroke: #000;stroke-linecap: round;stroke-linejoin: round"/>
    <polygon points="24.256 90 30.556 100.912 17.956 100.912 24.256 90" style="fill: none;stroke: #000;stroke-linecap: round;stroke-linejoin: round"/>
    <polygon points="36.856 90 43.156 100.912 30.556 100.912 36.856 90" style="fill: none;stroke: #000;stroke-linecap: round;stroke-linejoin: round"/>
    <polygon points="30.556 100.912 24.256 90 36.856 90 30.556 100.912" style="fill: none;stroke: #000;stroke-linecap: round;stroke-linejoin: round"/>
    <polygon points="49.456 90 55.756 100.912 43.156 100.912 49.456 90" style="fill: none;stroke: #000;stroke-linecap: round;stroke-linejoin: round"/>
    <polygon points="43.156 100.912 36.856 90 49.456 90 43.156 100.912" style="fill: none;stroke: #000;stroke-linecap: round;stroke-linejoin: round"/>
    <polygon points="55.756 100.912 49.456 90 62.056 90 55.756 100.912" style="fill: none;stroke: #000;stroke-linecap: round;stroke-linejoin: round"/>
    <polygon points="62.056 90 68.356 100.912 55.756 100.912 62.056 90" style="fill: none;stroke: #000;stroke-linecap: round;stroke-linejoin: round"/>
    <polygon points="68.356 100.912 62.056 90 74.656 90 68.356 100.912" style="fill: none;stroke: #000;stroke-linecap: round;stroke-linejoin: round"/>
    <polygon points="30.556 100.912 36.856 111.824 24.256 111.824 30.556 100.912" style="fill: none;stroke: #000;stroke-linecap: round;stroke-linejoin: round"/>
    <polygon points="43.156 100.912 49.456 111.824 36.856 111.824 43.156 100.912" style="fill: none;stroke: #000;stroke-linecap: round;stroke-linejoin: round"/>
    <polygon points="36.856 111.824 30.556 100.912 43.156 100.912 36.856 111.824" style="fill: none;stroke: #000;stroke-linecap: round;stroke-linejoin: round"/>
    <polygon points="55.756 100.912 62.056 111.824 49.456 111.824 55.756 100.912" style="fill: none;stroke: #000;stroke-linecap: round;stroke-linejoin: round"/>
    <polygon points="49.456 111.824 43.156 100.912 55.756 100.912 49.456 111.824" style="fill: none;stroke: #000;stroke-linecap: round;stroke-linejoin: round"/>
    <polygon points="62.056 111.824 55.756 100.912 68.356 100.912 62.056 111.824" style="fill: none;stroke: #000;stroke-linecap: round;stroke-linejoin: round"/>
    <polygon points="68.356 100.912 74.656 111.824 62.056 111.824 68.356 100.912" style="fill: none;stroke: #000;stroke-linecap: round;stroke-linejoin: round"/>
    <polygon points="74.656 111.824 68.356 100.912 80.956 100.912 74.656 111.824" style="fill: none;stroke: #000;stroke-linecap: round;stroke-linejoin: round"/>
    <polygon points="24.256 111.824 30.556 122.736 17.956 122.736 24.256 111.824" style="fill: none;stroke: #000;stroke-linecap: round;stroke-linejoin: round"/>
    <polygon points="36.856 111.824 43.156 122.736 30.556 122.736 36.856 111.824" style="fill: none;stroke: #000;stroke-linecap: round;stroke-linejoin: round"/>
    <polygon points="30.556 122.736 24.256 111.824 36.856 111.824 30.556 122.736" style="fill: none;stroke: #000;stroke-linecap: round;stroke-linejoin: round"/>
    <polygon points="49.456 111.824 55.756 122.736 43.156 122.736 49.456 111.824" style="fill: none;stroke: #000;stroke-linecap: round;stroke-linejoin: round"/>
    <polygon points="43.156 122.736 36.856 111.824 49.456 111.824 43.156 122.736" style="fill: none;stroke: #000;stroke-linecap: round;stroke-linejoin: round"/>
    <polygon points="55.756 122.736 49.456 111.824 62.056 111.824 55.756 122.736" style="fill: none;stroke: #000;stroke-linecap: round;stroke-linejoin: round"/>
    <polygon points="62.056 111.824 68.356 122.736 55.756 122.736 62.056 111.824" style="fill: none;stroke: #000;stroke-linecap: round;stroke-linejoin: round"/>
    <polygon points="68.356 122.736 62.056 111.824 74.656 111.824 68.356 122.736" style="fill: none;stroke: #000;stroke-linecap: round;stroke-linejoin: round"/>
  </g>
</svg>
